<?xml version="1.0" encoding="UTF-8"?>
<!DOCTYPE svg PUBLIC "-//W3C//DTD SVG 1.1//EN" "http://www.w3.org/Graphics/SVG/1.1/DTD/svg11.dtd">
<svg xmlns="http://www.w3.org/2000/svg" version="1.1" width="512px" height="512px" style="shape-rendering:geometricPrecision; text-rendering:geometricPrecision; image-rendering:optimizeQuality; fill-rule:evenodd; clip-rule:evenodd" xmlns:xlink="http://www.w3.org/1999/xlink">
<g><path style="opacity:0.95" fill="#000000" d="M 421.5,-0.5 C 424.167,-0.5 426.833,-0.5 429.5,-0.5C 435.594,3.76229 437.094,9.42896 434,16.5C 431.246,21.0077 428.746,25.6743 426.5,30.5C 441.572,38.5701 454.906,48.9034 466.5,61.5C 473.227,57.9639 480.227,55.2972 487.5,53.5C 496.429,54.6289 499.595,59.6289 497,68.5C 491.646,73.2616 485.479,76.595 478.5,78.5C 480.702,85.2446 483.202,91.9113 486,98.5C 488.298,106.022 489.798,113.689 490.5,121.5C 495.844,121.334 501.177,121.501 506.5,122C 508.323,122.997 509.99,124.164 511.5,125.5C 511.5,129.5 511.5,133.5 511.5,137.5C 509.467,140.013 506.801,141.513 503.5,142C 499.179,142.499 494.846,142.666 490.5,142.5C 489.499,158.003 485.165,172.503 477.5,186C 484.616,188.725 491.616,191.725 498.5,195C 503.99,201.016 503.657,206.682 497.5,212C 495.801,212.958 493.967,213.458 492,213.5C 483.138,210.471 474.305,207.638 465.5,205C 455.139,216.204 443.472,225.704 430.5,233.5C 429.479,234.002 429.312,234.668 430,235.5C 436.042,240.03 441.709,245.03 447,250.5C 449.569,259.121 446.402,264.454 437.5,266.5C 435.885,265.846 434.218,265.346 432.5,265C 425.618,259.277 418.618,253.777 411.5,248.5C 401.112,256.381 391.445,265.214 382.5,275C 388.333,280.833 394.167,286.667 400,292.5C 402.851,303.316 398.684,308.483 387.5,308C 380.738,303.242 374.571,297.742 369,291.5C 360.462,303.408 352.295,315.575 344.5,328C 349.746,332.575 354.246,337.742 358,343.5C 359.5,354 355,358.5 344.5,357C 339.077,353.581 334.244,349.415 330,344.5C 312.536,360.312 292.036,369.812 268.5,373C 267.697,377.414 267.197,381.914 267,386.5C 264.27,393.053 259.437,395.22 252.5,393C 249.619,391.749 247.786,389.583 247,386.5C 246.501,382.179 246.334,377.846 246.5,373.5C 239.909,373.106 233.409,372.106 227,370.5C 220.131,385.903 211.464,400.236 201,413.5C 186.864,427.646 171.031,439.48 153.5,449C 134.45,463.732 122.284,482.899 117,506.5C 115.293,508.037 113.793,509.704 112.5,511.5C 109.5,511.5 106.5,511.5 103.5,511.5C 101.193,510.023 99.3597,508.023 98,505.5C 97.7753,494.162 100.442,483.496 106,473.5C 114.302,457.095 125.802,443.262 140.5,432C 152.844,424.496 164.844,416.496 176.5,408C 189.415,395.511 199.082,380.844 205.5,364C 196.183,358.338 187.183,352.171 178.5,345.5C 151.802,363.222 130.302,385.889 114,413.5C 106.333,428.833 98.6667,444.167 91,459.5C 74.8231,486.982 51.3231,504.316 20.5,511.5C 15.5,511.5 10.5,511.5 5.5,511.5C 0.878704,507.525 -0.621296,502.525 1,496.5C 2.5429,494.622 4.37623,493.122 6.5,492C 28.2624,489.869 46.4291,480.702 61,464.5C 65.7206,458.779 70.054,452.779 74,446.5C 84.5335,421.083 97.8668,397.416 114,375.5C 128.328,357.168 145.161,341.668 164.5,329C 160.376,323.923 156.876,318.423 154,312.5C 135.91,319.587 120.243,330.254 107,344.5C 98.6667,356.833 90.3333,369.167 82,381.5C 74.9892,390.745 66.4892,398.245 56.5,404C 44.7762,404.254 40.9428,398.754 45,387.5C 48.8333,384.333 52.6667,381.167 56.5,378C 67.8867,365.279 77.72,351.445 86,336.5C 102.086,316.251 122.253,301.584 146.5,292.5C 140.911,271.067 141.245,249.734 147.5,228.5C 140.849,226.336 134.182,224.169 127.5,222C 123.251,217.454 122.418,212.287 125,206.5C 127.545,204.205 130.545,202.871 134,202.5C 141.403,204.35 148.736,206.35 156,208.5C 162.626,196.075 170.126,184.242 178.5,173C 172.031,167.532 165.864,161.699 160,155.5C 158.888,141.612 164.721,137.446 177.5,143C 181.699,147.534 186.199,151.701 191,155.5C 200.934,142.396 211.434,129.729 222.5,117.5C 219.146,113.981 215.98,110.314 213,106.5C 210.17,96.3139 214.003,91.1472 224.5,91C 229.852,93.5094 234.518,97.0094 238.5,101.5C 249.39,91.1066 260.723,81.2733 272.5,72C 268.688,66.876 265.521,61.376 263,55.5C 262.671,43.7283 268.171,39.895 279.5,44C 282.723,48.9576 286.056,53.7909 289.5,58.5C 301.537,50.154 313.537,41.8207 325.5,33.5C 322.139,27.6145 319.473,21.4478 317.5,15C 319.977,5.78542 325.644,2.95209 334.5,6.5C 338.757,12.0077 342.257,18.0077 345,24.5C 345.725,25.0585 346.558,25.3918 347.5,25.5C 366.961,19.4717 386.461,19.1384 406,24.5C 409.333,17.8333 412.667,11.1667 416,4.5C 417.73,2.59809 419.563,0.93142 421.5,-0.5 Z M 425.5,55.5 C 409.487,53.8718 393.82,55.5385 378.5,60.5C 364.916,61.2303 352.249,65.0637 340.5,72C 323.535,82.7336 307.368,94.567 292,107.5C 286.462,119.601 290.295,125.434 303.5,125C 319.608,112.225 336.275,100.225 353.5,89C 374.211,78.3807 393.878,80.0474 412.5,94C 415.118,96.1057 417.118,98.6057 418.5,101.5C 406.816,100.114 395.483,101.614 384.5,106C 376.017,110.995 367.683,116.162 359.5,121.5C 340.728,119.811 327.561,127.477 320,144.5C 318.801,147.726 318.301,151.059 318.5,154.5C 296.351,173.311 276.684,194.311 259.5,217.5C 253.648,216.861 248.148,217.861 243,220.5C 239.358,226.553 239.858,232.22 244.5,237.5C 237.837,248.154 231.67,259.154 226,270.5C 222.932,280.599 221.766,290.932 222.5,301.5C 203.499,284.683 198.666,264.35 208,240.5C 221.273,217.614 236.273,195.947 253,175.5C 254.641,163.233 249.474,158.733 237.5,162C 218.657,184.178 202.157,208.011 188,233.5C 181.735,249.891 180.902,266.558 185.5,283.5C 185.521,299.911 188.854,315.578 195.5,330.5C 171.216,309.516 160.716,282.85 164,250.5C 165.807,238.079 169.807,226.412 176,215.5C 217.598,145.235 273.765,89.7352 344.5,49C 367.826,39.0971 391.16,39.0971 414.5,49C 418.56,50.6891 422.227,52.8558 425.5,55.5 Z"/></g>
<g><path style="opacity:0.994" fill="#c6effb" d="M 425.5,55.5 C 429.893,56.8644 433.893,59.0311 437.5,62C 471.144,93.0852 479.311,129.919 462,172.5C 456.081,184.093 448.247,194.26 438.5,203C 408.82,220.795 382.653,242.961 360,269.5C 346.754,287.658 333.754,305.991 321,324.5C 299.048,346.265 272.548,355.765 241.5,353C 228.326,350.498 215.993,345.832 204.5,339C 201,336.666 198,333.832 195.5,330.5C 188.854,315.578 185.521,299.911 185.5,283.5C 200.431,319.638 227.431,335.805 266.5,332C 283.947,328.558 298.447,320.058 310,306.5C 331.011,270.147 357.844,238.647 390.5,212C 402.658,203.087 414.992,194.421 427.5,186C 450.167,162.492 456.001,135.325 445,104.5C 431.376,76.9369 409.209,62.2702 378.5,60.5C 393.82,55.5385 409.487,53.8718 425.5,55.5 Z"/></g>
<g><path style="opacity:0.975" fill="#020101" d="M 378.5,60.5 C 409.209,62.2702 431.376,76.9369 445,104.5C 456.001,135.325 450.167,162.492 427.5,186C 414.992,194.421 402.658,203.087 390.5,212C 357.844,238.647 331.011,270.147 310,306.5C 298.447,320.058 283.947,328.558 266.5,332C 227.431,335.805 200.431,319.638 185.5,283.5C 180.902,266.558 181.735,249.891 188,233.5C 202.157,208.011 218.657,184.178 237.5,162C 249.474,158.733 254.641,163.233 253,175.5C 236.273,195.947 221.273,217.614 208,240.5C 198.666,264.35 203.499,284.683 222.5,301.5C 235.5,312.805 250.5,316.305 267.5,312C 278.556,308.605 287.723,302.439 295,293.5C 323.306,243.86 361.806,204.027 410.5,174C 431.898,154.34 436.065,131.506 423,105.5C 422.124,103.365 420.624,102.031 418.5,101.5C 417.118,98.6057 415.118,96.1057 412.5,94C 393.878,80.0474 374.211,78.3807 353.5,89C 336.275,100.225 319.608,112.225 303.5,125C 290.295,125.434 286.462,119.601 292,107.5C 307.368,94.567 323.535,82.7336 340.5,72C 352.249,65.0637 364.916,61.2303 378.5,60.5 Z"/></g>
<g><path style="opacity:0.99" fill="#fdc46b" d="M 418.5,101.5 C 420.624,102.031 422.124,103.365 423,105.5C 436.065,131.506 431.898,154.34 410.5,174C 361.806,204.027 323.306,243.86 295,293.5C 287.723,302.439 278.556,308.605 267.5,312C 250.5,316.305 235.5,312.805 222.5,301.5C 221.766,290.932 222.932,280.599 226,270.5C 231.67,259.154 237.837,248.154 244.5,237.5C 248.808,238.368 253.141,238.534 257.5,238C 265.3,236.18 268.133,231.347 266,223.5C 263.937,221.266 261.771,219.266 259.5,217.5C 276.684,194.311 296.351,173.311 318.5,154.5C 320.292,180.067 333.959,191.567 359.5,189C 379.307,182.227 388.14,168.394 386,147.5C 381.904,133.904 373.071,125.237 359.5,121.5C 367.683,116.162 376.017,110.995 384.5,106C 395.483,101.614 406.816,100.114 418.5,101.5 Z"/></g>
<g><path style="opacity:0.989" fill="#030201" d="M 359.5,121.5 C 373.071,125.237 381.904,133.904 386,147.5C 388.14,168.394 379.307,182.227 359.5,189C 333.959,191.567 320.292,180.067 318.5,154.5C 318.301,151.059 318.801,147.726 320,144.5C 327.561,127.477 340.728,119.811 359.5,121.5 Z"/></g>
<g><path style="opacity:0.89" fill="#000000" d="M 265.5,132.5 C 275.99,131.489 280.49,136.155 279,146.5C 274.733,153.876 268.899,155.376 261.5,151C 256.604,143.415 257.937,137.248 265.5,132.5 Z"/></g>
<g><path style="opacity:1" fill="#f95b5b" d="M 349.5,141.5 C 364.596,142.021 369.43,149.354 364,163.5C 359.032,169.115 352.865,170.948 345.5,169C 338.638,164.016 336.805,157.516 340,149.5C 342.772,146.217 345.939,143.55 349.5,141.5 Z"/></g>
<g><path style="opacity:1" fill="#060402" d="M 295.5,196.5 C 301.347,195.84 305.513,198.173 308,203.5C 308.839,210.567 308.506,217.567 307,224.5C 301.333,231.167 295.667,231.167 290,224.5C 288.494,217.567 288.161,210.567 289,203.5C 290.694,200.642 292.861,198.309 295.5,196.5 Z"/></g>
<g><path style="opacity:0.95" fill="#050301" d="M 259.5,217.5 C 261.771,219.266 263.937,221.266 266,223.5C 268.133,231.347 265.3,236.18 257.5,238C 253.141,238.534 248.808,238.368 244.5,237.5C 239.858,232.22 239.358,226.553 243,220.5C 248.148,217.861 253.648,216.861 259.5,217.5 Z"/></g>
<g><path style="opacity:1" fill="#080603" d="M 242.5,260.5 C 253.283,260.439 260.283,265.606 263.5,276C 262.432,284.211 257.765,287.545 249.5,286C 245,282.833 241.167,279 238,274.5C 237.333,271.5 237.333,268.5 238,265.5C 239.707,263.963 241.207,262.296 242.5,260.5 Z"/></g>
<g><path style="opacity:0.892" fill="#000000" d="M 12.5,400.5 C 22.3019,400.76 26.4686,405.76 25,415.5C 21.9446,420.635 17.4446,422.468 11.5,421C 4.5142,417.038 3.0142,411.538 7,404.5C 8.81213,403.023 10.6455,401.69 12.5,400.5 Z"/></g>
</svg>
